<svg width="150" height="150" viewBox="0 0 150 150" fill="none" xmlns="http://www.w3.org/2000/svg">
<path d="M0.5 6C0.5 2.96244 2.96243 0.5 6 0.5H144C147.038 0.5 149.5 2.96243 149.5 6V144C149.5 147.038 147.038 149.5 144 149.5H6C2.96244 149.5 0.5 147.038 0.5 144V6Z" fill="#ECECEE" stroke="#E7E8E9"/>
<path d="M107.154 110H41.2027C37.1827 110 34.6861 105.63 36.7277 102.167L52.4141 75.5609C54.0736 72.7461 57.8889 72.1442 60.3344 74.3113L67.2209 80.414C69.5471 82.4755 73.1508 82.0464 74.9281 79.4965L84.5477 65.6944C86.7933 62.4725 91.6642 62.8116 93.4418 66.3136L111.786 102.454C113.54 105.91 111.029 110 107.154 110Z" fill="#B3B3B3"/>
<path d="M113.668 50.3896C113.668 56.1276 109.016 60.7792 103.278 60.7792C97.5403 60.7792 92.8887 56.1276 92.8887 50.3896C92.8887 44.6516 97.5403 40 103.278 40C109.016 40 113.668 44.6516 113.668 50.3896Z" fill="#B3B3B3"/>
</svg>
